<mxfile host="app.diagrams.net" modified="2020-06-09T03:51:41.501Z" agent="5.0 (Macintosh; Intel Mac OS X 10_14_6) AppleWebKit/537.36 (KHTML, like Gecko) Chrome/83.0.4103.97 Safari/537.36" etag="bNiXgqN4r3NzMa1537kU" version="13.1.14" type="github">
  <diagram id="kS0ti_N2tpWNFURmzNsF" name="Page-1">
    <mxGraphModel dx="1302" dy="667" grid="1" gridSize="10" guides="1" tooltips="1" connect="1" arrows="1" fold="1" page="1" pageScale="1" pageWidth="827" pageHeight="1169" math="0" shadow="0">
      <root>
        <mxCell id="0" />
        <mxCell id="1" parent="0" />
        <mxCell id="tZKj5MR_nMis3N_ipYC9-4" value="" style="edgeStyle=orthogonalEdgeStyle;rounded=0;orthogonalLoop=1;jettySize=auto;html=1;" parent="1" source="tZKj5MR_nMis3N_ipYC9-2" target="tZKj5MR_nMis3N_ipYC9-3" edge="1">
          <mxGeometry relative="1" as="geometry" />
        </mxCell>
        <mxCell id="KrwiQg2z8KRAGIMIgZvA-2" value="" style="edgeStyle=orthogonalEdgeStyle;rounded=0;orthogonalLoop=1;jettySize=auto;html=1;" edge="1" parent="1" source="tZKj5MR_nMis3N_ipYC9-2" target="KrwiQg2z8KRAGIMIgZvA-1">
          <mxGeometry relative="1" as="geometry" />
        </mxCell>
        <mxCell id="KrwiQg2z8KRAGIMIgZvA-7" value="" style="edgeStyle=orthogonalEdgeStyle;rounded=0;orthogonalLoop=1;jettySize=auto;html=1;" edge="1" parent="1" source="tZKj5MR_nMis3N_ipYC9-2" target="KrwiQg2z8KRAGIMIgZvA-1">
          <mxGeometry relative="1" as="geometry" />
        </mxCell>
        <mxCell id="KrwiQg2z8KRAGIMIgZvA-9" value="" style="edgeStyle=orthogonalEdgeStyle;rounded=0;orthogonalLoop=1;jettySize=auto;html=1;" edge="1" parent="1" source="tZKj5MR_nMis3N_ipYC9-2" target="KrwiQg2z8KRAGIMIgZvA-8">
          <mxGeometry relative="1" as="geometry" />
        </mxCell>
        <mxCell id="tZKj5MR_nMis3N_ipYC9-2" value="&lt;p style=&quot;margin: 0px ; margin-top: 4px ; text-align: center&quot;&gt;&lt;i&gt;&amp;lt;&amp;lt;Interface&amp;gt;&amp;gt;&lt;/i&gt;&lt;br&gt;&lt;b&gt;应用画像-paycore&lt;/b&gt;&lt;/p&gt;&lt;hr size=&quot;1&quot;&gt;&lt;p style=&quot;margin: 0px ; margin-left: 4px&quot;&gt;+ 元数据: 状态数据，标签数据&lt;br&gt;+ 时序数据: CPU、QPS、ERROR&lt;/p&gt;&lt;p style=&quot;margin: 0px ; margin-left: 4px&quot;&gt;+ 特征数据:流量类型、资源类型&lt;/p&gt;&lt;hr size=&quot;1&quot;&gt;&lt;p style=&quot;margin: 0px ; margin-left: 4px&quot;&gt;+ 单指标异常(时序数据): Boolean&lt;/p&gt;&lt;p style=&quot;margin: 0px ; margin-left: 4px&quot;&gt;+ 指标相关性(时序数据): List&lt;/p&gt;&lt;p style=&quot;margin: 0px ; margin-left: 4px&quot;&gt;&lt;span&gt;+ 拓扑分析(): 应用列表&lt;/span&gt;&lt;/p&gt;&lt;p style=&quot;margin: 0px ; margin-left: 4px&quot;&gt;&lt;span&gt;+ 决策树模型():决策结论&lt;/span&gt;&lt;/p&gt;" style="verticalAlign=top;align=left;overflow=fill;fontSize=12;fontFamily=Helvetica;html=1;" parent="1" vertex="1">
          <mxGeometry x="340" y="220" width="190" height="190" as="geometry" />
        </mxCell>
        <mxCell id="KrwiQg2z8KRAGIMIgZvA-8" value="&lt;p style=&quot;margin: 0px ; margin-top: 4px ; text-align: center&quot;&gt;&lt;i&gt;&amp;lt;&amp;lt;Interface&amp;gt;&amp;gt;&lt;/i&gt;&lt;br&gt;&lt;b&gt;数据库画像-paycore&lt;/b&gt;&lt;/p&gt;&lt;hr size=&quot;1&quot;&gt;&lt;p style=&quot;margin: 0px ; margin-left: 4px&quot;&gt;+ 元数据: 状态数据，标签数据&lt;br&gt;+ 时序数据:CPU、Success、Fail&lt;/p&gt;&lt;p style=&quot;margin: 0px ; margin-left: 4px&quot;&gt;+ 特征数据:流量类型、资源类型&lt;/p&gt;&lt;hr size=&quot;1&quot;&gt;&lt;p style=&quot;margin: 0px ; margin-left: 4px&quot;&gt;+ 单指标异常(时序数据): Boolean&lt;/p&gt;&lt;p style=&quot;margin: 0px ; margin-left: 4px&quot;&gt;+ 指标相关性(时序数据): List&lt;br&gt;&lt;/p&gt;&lt;p style=&quot;margin: 0px ; margin-left: 4px&quot;&gt;&lt;span&gt;+ 决策树模型():决策结论&lt;/span&gt;&lt;/p&gt;" style="verticalAlign=top;align=left;overflow=fill;fontSize=12;fontFamily=Helvetica;html=1;" vertex="1" parent="1">
          <mxGeometry x="110" y="490" width="190" height="190" as="geometry" />
        </mxCell>
        <mxCell id="KrwiQg2z8KRAGIMIgZvA-1" value="&lt;p style=&quot;margin: 0px ; margin-top: 4px ; text-align: center&quot;&gt;&lt;i&gt;&amp;lt;&amp;lt;Interface&amp;gt;&amp;gt;&lt;/i&gt;&lt;br&gt;&lt;b&gt;缓存画像-paycore&lt;/b&gt;&lt;/p&gt;&lt;hr size=&quot;1&quot;&gt;&lt;p style=&quot;margin: 0px ; margin-left: 4px&quot;&gt;+ 元数据: 状态数据，标签数据&lt;br&gt;+ 时序数据: KV、Mem、CPU、QPS&lt;/p&gt;&lt;hr size=&quot;1&quot;&gt;&lt;p style=&quot;margin: 0px ; margin-left: 4px&quot;&gt;+ 单指标异常(时序数据): Boolean&lt;/p&gt;&lt;p style=&quot;margin: 0px ; margin-left: 4px&quot;&gt;&lt;span&gt;+ 决策树模型():决策结论&lt;/span&gt;&lt;/p&gt;" style="verticalAlign=top;align=left;overflow=fill;fontSize=12;fontFamily=Helvetica;html=1;" vertex="1" parent="1">
          <mxGeometry x="335" y="490" width="200" height="190" as="geometry" />
        </mxCell>
        <mxCell id="KrwiQg2z8KRAGIMIgZvA-4" value="" style="edgeStyle=orthogonalEdgeStyle;rounded=0;orthogonalLoop=1;jettySize=auto;html=1;" edge="1" parent="1" source="tZKj5MR_nMis3N_ipYC9-3" target="KrwiQg2z8KRAGIMIgZvA-3">
          <mxGeometry relative="1" as="geometry" />
        </mxCell>
        <mxCell id="KrwiQg2z8KRAGIMIgZvA-6" value="" style="edgeStyle=orthogonalEdgeStyle;rounded=0;orthogonalLoop=1;jettySize=auto;html=1;" edge="1" parent="1" source="tZKj5MR_nMis3N_ipYC9-3" target="KrwiQg2z8KRAGIMIgZvA-5">
          <mxGeometry relative="1" as="geometry" />
        </mxCell>
        <mxCell id="tZKj5MR_nMis3N_ipYC9-3" value="&lt;p style=&quot;margin: 0px ; margin-top: 4px ; text-align: center&quot;&gt;&lt;i&gt;&amp;lt;&amp;lt;Interface&amp;gt;&amp;gt;&lt;/i&gt;&lt;br&gt;&lt;b&gt;应用画像-cif&lt;/b&gt;&lt;/p&gt;&lt;hr size=&quot;1&quot;&gt;&lt;p style=&quot;margin: 0px ; margin-left: 4px&quot;&gt;+ 元数据: 状态数据，标签数据&lt;br&gt;+ 时序数据: CPU、QPS、ERROR&lt;/p&gt;&lt;p style=&quot;margin: 0px ; margin-left: 4px&quot;&gt;+ 特征数据:流量类型、资源类型&lt;/p&gt;&lt;hr size=&quot;1&quot;&gt;&lt;p style=&quot;margin: 0px ; margin-left: 4px&quot;&gt;+ 单指标异常(时序数据): Boolean&lt;/p&gt;&lt;p style=&quot;margin: 0px ; margin-left: 4px&quot;&gt;+ 指标相关性(时序数据): List&lt;/p&gt;&lt;p style=&quot;margin: 0px ; margin-left: 4px&quot;&gt;&lt;span&gt;+ 拓扑分析(): 应用列表&lt;/span&gt;&lt;/p&gt;&lt;p style=&quot;margin: 0px ; margin-left: 4px&quot;&gt;&lt;span&gt;+ 决策树模型():决策结论&lt;/span&gt;&lt;/p&gt;" style="verticalAlign=top;align=left;overflow=fill;fontSize=12;fontFamily=Helvetica;html=1;" parent="1" vertex="1">
          <mxGeometry x="620" y="220" width="190" height="190" as="geometry" />
        </mxCell>
        <mxCell id="KrwiQg2z8KRAGIMIgZvA-5" value="&lt;p style=&quot;margin: 0px ; margin-top: 4px ; text-align: center&quot;&gt;&lt;i&gt;&amp;lt;&amp;lt;Interface&amp;gt;&amp;gt;&lt;/i&gt;&lt;br&gt;&lt;b&gt;缓存画像-cif&lt;/b&gt;&lt;/p&gt;&lt;hr size=&quot;1&quot;&gt;&lt;p style=&quot;margin: 0px ; margin-left: 4px&quot;&gt;+ 元数据: 状态数据，标签数据&lt;br&gt;+ 时序数据: KV、Mem、CPU、QPS&lt;br&gt;&lt;/p&gt;&lt;hr size=&quot;1&quot;&gt;&lt;p style=&quot;margin: 0px ; margin-left: 4px&quot;&gt;+ 单指标异常(时序数据): Boolean&lt;/p&gt;&lt;p style=&quot;margin: 0px ; margin-left: 4px&quot;&gt;&lt;span&gt;+ 决策树模型():决策结论&lt;/span&gt;&lt;/p&gt;" style="verticalAlign=top;align=left;overflow=fill;fontSize=12;fontFamily=Helvetica;html=1;" vertex="1" parent="1">
          <mxGeometry x="840" y="490" width="200" height="190" as="geometry" />
        </mxCell>
        <mxCell id="KrwiQg2z8KRAGIMIgZvA-3" value="&lt;p style=&quot;margin: 0px ; margin-top: 4px ; text-align: center&quot;&gt;&lt;i&gt;&amp;lt;&amp;lt;Interface&amp;gt;&amp;gt;&lt;/i&gt;&lt;br&gt;&lt;b&gt;数据库画像-cif&lt;/b&gt;&lt;/p&gt;&lt;hr size=&quot;1&quot;&gt;&lt;p style=&quot;margin: 0px ; margin-left: 4px&quot;&gt;+ 元数据: 状态数据，标签数据&lt;br&gt;&lt;/p&gt;&amp;nbsp;+ 时序数据:CPU、Success、Fail&lt;p style=&quot;margin: 0px ; margin-left: 4px&quot;&gt;+ 特征数据:流量类型、资源类型&lt;/p&gt;&lt;hr size=&quot;1&quot;&gt;&lt;p style=&quot;margin: 0px ; margin-left: 4px&quot;&gt;+ 单指标异常(时序数据): Boolean&lt;/p&gt;&lt;p style=&quot;margin: 0px ; margin-left: 4px&quot;&gt;+ 指标相关性(时序数据): List&lt;/p&gt;&lt;p style=&quot;margin: 0px ; margin-left: 4px&quot;&gt;&lt;span&gt;+ 决策树模型():决策结论&lt;/span&gt;&lt;/p&gt;" style="verticalAlign=top;align=left;overflow=fill;fontSize=12;fontFamily=Helvetica;html=1;" vertex="1" parent="1">
          <mxGeometry x="620" y="490" width="190" height="190" as="geometry" />
        </mxCell>
      </root>
    </mxGraphModel>
  </diagram>
</mxfile>
